<svg xmlns="http://www.w3.org/2000/svg" viewBox="330 210 210 210" style="fill: none;">
  <path style="stroke-width: 15px; stroke-linecap: round; stroke-linejoin: round; stroke: #2E3440; fill: none;" d="M360,240 L360,240 L390,240 M360,270 L360,270 L390,270 M420,240 L420,240 L420,270 M450,240 L450,240 L450,270 M435,255 L435,255 L435,255 M480,240 L480,240 L480,270 M510,240 L510,240 L510,270 M360,300 L360,300 L390,300 M375,315 L375,315 L375,315 M360,330 L360,330 L390,330 M420,300 L420,300 L420,330 M450,300 L450,300 L450,330 M495,300 L495,300 L480,300 L480,300 L480,330 L480,315 M480,330 L480,330 L510,330 M390,360 L390,360 L360,360 L360,390 L390,390 M420,390 L420,390 L420,360 L510,360 "/>
  <path style="stroke-width: 15px; stroke-linecap: round; stroke-linejoin: round; stroke: #BF616A; fill: none;" d="M360,240 L360,240 L390,270 M480,240 L480,240 L495,255 L510,240 M420,300 L420,300 L450,330 M510,330 L510,330 L510,315 M375,375 L375,375 L375,375 M450,390 L450,390 L510,390 "/>
</svg>